<?xml version="1.0" standalone="no"?>
<!DOCTYPE svg PUBLIC "-//W3C//DTD SVG 20010904//EN"
 "http://www.w3.org/TR/2001/REC-SVG-20010904/DTD/svg10.dtd">
<svg version="1.0" xmlns="http://www.w3.org/2000/svg"
 width="387.000000pt" height="174.000000pt" viewBox="0 0 387.000000 174.000000"
 preserveAspectRatio="xMidYMid meet">
<metadata>
Created by potrace 1.16, written by Peter Selinger 2001-2019
</metadata>
<g transform="translate(0.000000,174.000000) scale(0.100000,-0.100000)"
fill="#000000" stroke="none">
<path d="M210 1679 c0 -37 44 -122 86 -169 102 -113 333 -232 614 -315 161
-48 383 -105 388 -100 3 2 -9 7 -24 11 -60 15 -294 104 -419 159 -247 109
-406 209 -552 348 -79 76 -93 86 -93 66z"/>
<path d="M80 1548 c0 -25 48 -115 79 -151 158 -180 628 -357 1101 -416 74 -9
131 -19 125 -22 -17 -9 -263 10 -393 31 -182 30 -387 82 -566 145 -87 30 -161
54 -163 52 -10 -11 97 -112 156 -147 190 -113 563 -190 920 -190 103 0 152 -4
157 -12 15 -24 -653 7 -799 38 -98 20 -105 19 -77 -11 38 -40 137 -84 240
-106 84 -18 130 -20 398 -20 297 1 391 -9 210 -23 -51 -4 -104 -10 -117 -13
-23 -6 -23 -7 -6 -19 13 -10 54 -14 141 -14 66 0 145 -5 175 -10 142 -27 258
-133 294 -268 l12 -47 7 50 c15 109 -33 288 -102 380 -104 138 -283 215 -822
355 -279 73 -349 94 -495 149 -170 65 -320 153 -426 248 -40 36 -49 40 -49 21z"/>
<path d="M1780 1136 c0 -25 48 -73 92 -92 42 -17 42 -18 15 -22 -17 -2 -45 6
-72 23 -43 25 -48 25 -108 15 -34 -6 -81 -16 -105 -22 l-42 -10 85 -44 c146
-74 244 -154 283 -229 l19 -38 12 34 c16 47 100 122 179 161 51 25 79 33 123
33 50 0 56 2 48 16 -9 17 -43 33 -94 44 -16 3 -40 13 -53 21 -31 21 -18 38 16
20 74 -37 97 -23 45 26 -51 47 -70 52 -248 57 -93 4 -176 10 -182 14 -9 5 -13
3 -13 -7z"/>
<path d="M1236 524 c-14 -13 -16 -48 -16 -230 l0 -214 50 0 50 0 0 180 c0 103
4 180 9 180 5 0 51 -55 103 -122 51 -66 115 -147 141 -180 l48 -58 64 0 c98 0
95 -7 95 246 l0 215 -47 -3 -48 -3 -3 -178 c-2 -136 -5 -178 -15 -175 -6 3
-58 65 -115 139 -178 233 -163 219 -237 219 -44 0 -68 -5 -79 -16z"/>
<path d="M2037 533 c-4 -3 -7 -23 -7 -44 l0 -38 113 -3 112 -3 3 -183 2 -183
48 3 47 3 3 183 2 182 110 0 110 0 0 45 0 45 -268 0 c-148 0 -272 -3 -275 -7z"/>
<path d="M2695 531 c-46 -19 -59 -48 -59 -127 0 -67 2 -77 27 -102 27 -27 29
-27 195 -32 l167 -5 0 -45 0 -45 -192 -3 c-209 -3 -208 -2 -196 -63 l6 -30
219 3 220 3 24 28 c21 24 24 38 24 102 0 64 -3 78 -24 102 l-24 28 -163 3
c-95 2 -169 8 -176 14 -16 13 -17 60 -1 76 8 8 65 12 189 12 194 0 190 -1 186
60 l-2 25 -200 2 c-110 1 -209 -2 -220 -6z"/>
<path d="M1871 290 l-2 -210 50 0 51 0 0 112 c0 94 -4 123 -26 186 -26 75 -50
122 -63 122 -4 0 -8 -94 -10 -210z"/>
</g>
</svg>
